<svg width="19" height="23" viewBox="0 0 19 23" fill="none" xmlns="http://www.w3.org/2000/svg">
<path d="M9.74207 10.5224H3.54104V3.37322H9.59103C10.8501 3.27999 12.1045 3.60761 13.1572 4.30463C13.5523 4.6248 13.8651 5.03482 14.0694 5.50046C14.2738 5.96611 14.3638 6.47387 14.332 6.98139C14.3601 7.47952 14.2725 7.9774 14.0759 8.43598C13.8794 8.89457 13.5793 9.3014 13.1992 9.62459C12.1827 10.3089 10.9631 10.6257 9.74207 10.5224ZM0 0V22.9748H3.54104V13.6943H9.62459C10.4553 13.6583 11.2867 13.7459 12.0916 13.9544C12.342 14.0319 12.5736 14.1607 12.7715 14.3326C12.9694 14.5045 13.1294 14.7158 13.2412 14.9529C13.5506 15.6993 13.7431 16.489 13.8117 17.294C13.8705 17.7052 13.9376 18.3597 14.0131 19.2743C14.0887 20.189 14.1726 20.9526 14.2649 21.498C14.3348 22.0156 14.476 22.5211 14.6844 23H18.3429V22.7315C18.1253 22.2498 17.9702 21.7422 17.8814 21.2211C17.8059 20.7344 17.7388 20.0715 17.68 19.2156C17.5793 17.915 17.4787 16.8997 17.3612 16.1613C17.2787 15.2559 16.9605 14.388 16.4382 13.6439C15.9282 13.0278 15.2291 12.5972 14.4495 12.4188C15.5181 12.0274 16.4289 11.2964 17.0423 10.3378C17.6918 9.29773 18.0215 8.08976 17.9905 6.86392C18.0446 5.93065 17.8947 4.9968 17.5512 4.12734C17.2078 3.25788 16.6791 2.47367 16.0018 1.82926C14.676 0.595768 12.7712 0 10.3294 0H0Z" fill="black"/>
</svg>
