<svg width="24" height="24" viewBox="0 0 24 24" fill="none" xmlns="http://www.w3.org/2000/svg">
<path d="M15.9542 19.4834C14.7154 20.2481 13.2827 20.6399 11.8271 20.6121C10.3439 20.6404 8.88326 20.246 7.61584 19.475C6.38327 18.7124 5.39072 17.6177 4.75217 16.3165C4.05181 14.8924 3.70237 13.3214 3.73304 11.7347C3.70532 10.2344 4.05581 8.75139 4.75217 7.4223C5.40454 6.18123 6.39814 5.15256 7.61584 4.45755C8.89732 3.7274 10.3526 3.35777 11.8271 3.38788C13.2751 3.35775 14.7032 3.7279 15.9542 4.45755C17.1483 5.15832 18.116 6.18738 18.7421 7.4223C19.4223 8.75638 19.7636 10.2374 19.7359 11.7347C19.7657 13.3239 19.4254 14.8983 18.7421 16.3334C18.1361 17.6303 17.1679 18.7243 15.9542 19.4834ZM5.6955 22.4482C7.56437 23.5029 9.68155 24.038 11.8271 23.9979C13.9319 24.0314 16.0067 23.496 17.8324 22.4482C19.5798 21.4283 21.0043 19.9366 21.9427 18.1442C22.949 16.2141 23.4557 14.0626 23.4166 11.8863C23.4544 9.74497 22.9472 7.62922 21.9427 5.73778C20.9903 3.97949 19.5671 2.52123 17.8324 1.52649C16.0001 0.497786 13.9283 -0.0281491 11.8271 0.002003C9.68594 -0.0366971 7.57194 0.485995 5.6955 1.51807C3.9236 2.49782 2.46396 3.95746 1.48421 5.72936C0.476778 7.62002 -0.0333312 9.73581 0.00183325 11.8778C-0.0346873 14.0549 0.474961 16.2065 1.48421 18.1358C2.44827 19.9453 3.90941 21.4415 5.6955 22.4482Z" fill="black"/>
</svg>
