<svg width="18" height="23" viewBox="0 0 18 23" fill="none" xmlns="http://www.w3.org/2000/svg">
<path d="M9.61943 10.5168H3.54753V3.37141H9.47686C10.7561 3.28082 12.0303 3.60746 13.1083 4.30233C13.5161 4.61365 13.8411 5.02051 14.0546 5.48705C14.2682 5.9536 14.3637 6.4655 14.3327 6.97765C14.3585 7.48095 14.2639 7.98314 14.0568 8.44258C13.8497 8.90201 13.536 9.30545 13.1418 9.61943C12.0985 10.2982 10.8603 10.6136 9.61943 10.5168ZM0 0V22.9625H3.54753V13.9218H10.2568C12.3432 14.0616 14.4008 13.3747 15.9849 12.0096C16.6657 11.3342 17.1961 10.5226 17.5415 9.62804C17.8869 8.73344 18.0395 7.77596 17.9893 6.81831C18.0433 5.88554 17.8935 4.95219 17.5502 4.0832C17.207 3.2142 16.6785 2.43041 16.0016 1.78635C14.6766 0.595449 12.7728 0 10.2904 0H0Z" fill="black"/>
</svg>
